<svg width="1600" height="900" viewBox="0 0 1600 900" fill="none" xmlns="http://www.w3.org/2000/svg">
  <defs>
    <linearGradient id="bg" x1="0" y1="0" x2="1600" y2="900" gradientUnits="userSpaceOnUse">
      <stop stop-color="#071329"/>
      <stop offset="1" stop-color="#0B2A4A"/>
    </linearGradient>
    <radialGradient id="glow1" cx="0" cy="0" r="1" gradientUnits="userSpaceOnUse" gradientTransform="translate(1270 120) rotate(135) scale(520 360)">
      <stop stop-color="#25D9FF" stop-opacity="0.45"/>
      <stop offset="1" stop-color="#25D9FF" stop-opacity="0"/>
    </radialGradient>
    <radialGradient id="glow2" cx="0" cy="0" r="1" gradientUnits="userSpaceOnUse" gradientTransform="translate(330 760) rotate(-18) scale(620 260)">
      <stop stop-color="#7FF9D3" stop-opacity="0.3"/>
      <stop offset="1" stop-color="#7FF9D3" stop-opacity="0"/>
    </radialGradient>
  </defs>

  <rect width="1600" height="900" fill="url(#bg)"/>
  <rect width="1600" height="900" fill="url(#glow1)"/>
  <rect width="1600" height="900" fill="url(#glow2)"/>

  <g opacity="0.2" stroke="#8FD5FF">
    <path d="M120 720H1480"/>
    <path d="M120 640H1480"/>
    <path d="M120 560H1480"/>
    <path d="M120 480H1480"/>
    <path d="M120 400H1480"/>
  </g>

  <rect x="180" y="170" width="1240" height="560" rx="24" fill="#07101F" fill-opacity="0.55" stroke="#3CCEFF" stroke-opacity="0.45"/>
  <rect x="230" y="230" width="380" height="60" rx="12" fill="#10243B" stroke="#4EDCFF" stroke-opacity="0.5"/>
  <text x="254" y="269" fill="#BFEFFF" font-size="30" font-family="Inter, Pretendard, sans-serif" font-weight="700">jgo</text>

  <text x="230" y="360" fill="#E7F6FF" font-size="52" font-family="Inter, Pretendard, sans-serif" font-weight="800">OpenAI-Compatible</text>
  <text x="230" y="422" fill="#E7F6FF" font-size="52" font-family="Inter, Pretendard, sans-serif" font-weight="800">Automation Gateway</text>

  <text x="230" y="500" fill="#B7D5EA" font-size="28" font-family="Inter, Pretendard, sans-serif">Prompt in → Codex exec → Real CLI work</text>

  <g>
    <rect x="230" y="560" width="230" height="56" rx="10" fill="#10304E" stroke="#4EDCFF" stroke-opacity="0.55"/>
    <text x="256" y="596" fill="#DDF7FF" font-size="24" font-family="Inter, Pretendard, sans-serif">/v1/chat/completions</text>

    <rect x="490" y="560" width="170" height="56" rx="10" fill="#123653" stroke="#7FF9D3" stroke-opacity="0.55"/>
    <text x="545" y="596" fill="#E9FFF7" font-size="24" font-family="Inter, Pretendard, sans-serif">codex</text>

    <rect x="690" y="560" width="370" height="56" rx="10" fill="#15314B" stroke="#9FC4FF" stroke-opacity="0.55"/>
    <text x="716" y="596" fill="#EAF3FF" font-size="24" font-family="Inter, Pretendard, sans-serif">gh · aws · kubectl · git</text>
  </g>
</svg>
